<svg width="80" height="80" viewBox="0 0 80 80" fill="none" xmlns="http://www.w3.org/2000/svg">
<rect width="80" height="80" rx="16" fill="#FFDBDB"/>
<path d="M25.4313 57.2063C25.0496 57.2075 24.6722 57.1257 24.3253 56.9665C23.9784 56.8073 23.6703 56.5746 23.4223 56.2844C23.1744 55.9942 22.9925 55.6536 22.8894 55.2861C22.7862 54.9186 22.7643 54.5331 22.825 54.1563L23.9313 47.1688C24.0148 46.6187 24.2734 46.1102 24.6688 45.7188L46.4188 23.9688C47.1742 23.2169 48.1967 22.7948 49.2625 22.7948C50.3284 22.7948 51.3508 23.2169 52.1063 23.9688L56.0313 27.8938C56.7831 28.6492 57.2052 29.6717 57.2052 30.7375C57.2052 31.8034 56.7831 32.8258 56.0313 33.5813L34.2813 55.3313C33.8898 55.7266 33.3813 55.9852 32.8313 56.0688L25.8438 57.175C25.7071 57.1947 25.5693 57.2052 25.4313 57.2063ZM49.2625 25.2938C49.062 25.293 48.8632 25.3318 48.6777 25.4079C48.4922 25.4841 48.3235 25.5961 48.1813 25.7375L26.4375 47.5C26.4265 47.5093 26.4175 47.5208 26.411 47.5337C26.4046 47.5466 26.4008 47.5606 26.4 47.575L25.2938 54.55C25.2906 54.5713 25.2925 54.593 25.2992 54.6134C25.3059 54.6338 25.3173 54.6523 25.3325 54.6675C25.3477 54.6827 25.3663 54.6941 25.3867 54.7008C25.4071 54.7076 25.4288 54.7094 25.45 54.7063L32.4375 53.6C32.4621 53.5953 32.4843 53.582 32.5 53.5625L54.25 31.8188C54.5359 31.5328 54.6965 31.145 54.6965 30.7406C54.6965 30.3363 54.5359 29.9485 54.25 29.6625L50.3375 25.7375C50.1967 25.596 50.0291 25.4839 49.8446 25.4077C49.66 25.3315 49.4622 25.2928 49.2625 25.2938Z" fill="#FF3F3F"/>
<path d="M53.675 35.4188C53.5105 35.4197 53.3474 35.3882 53.1951 35.326C53.0428 35.2638 52.9043 35.1721 52.7875 35.0563L44.9437 27.2125C44.7092 26.978 44.5774 26.6599 44.5774 26.3281C44.5774 25.9964 44.7092 25.6783 44.9437 25.4438C45.1783 25.2092 45.4964 25.0775 45.8281 25.0775C46.1598 25.0775 46.4779 25.2092 46.7125 25.4438L54.5562 33.2875C54.6725 33.4036 54.7647 33.5415 54.8276 33.6932C54.8905 33.845 54.9228 34.0076 54.9228 34.1719C54.9228 34.3362 54.8905 34.4988 54.8276 34.6506C54.7647 34.8023 54.6725 34.9402 54.5562 35.0563C54.3219 35.2887 54.0051 35.419 53.675 35.4188ZM33.5687 55.525C33.2387 55.5253 32.9219 55.395 32.6875 55.1625L24.8375 47.3125C24.6225 47.0744 24.5072 46.7626 24.5157 46.4419C24.5242 46.1211 24.6556 45.8159 24.8829 45.5894C25.1102 45.3629 25.4159 45.2325 25.7367 45.2251C26.0575 45.2178 26.3688 45.3341 26.6062 45.55L34.4562 53.3938C34.6304 53.5689 34.7487 53.7918 34.7963 54.0341C34.8439 54.2765 34.8186 54.5275 34.7237 54.7556C34.6287 54.9836 34.4684 55.1783 34.2628 55.3153C34.0573 55.4522 33.8157 55.5252 33.5687 55.525Z" fill="#FF3F3F"/>
<path d="M29.6438 51.6063C29.3949 51.609 29.151 51.5373 28.9431 51.4006C28.7353 51.2638 28.5729 51.0681 28.4769 50.8385C28.381 50.609 28.3557 50.356 28.4043 50.112C28.453 49.8679 28.5733 49.644 28.75 49.4688L48.8688 29.375C48.9783 29.2371 49.1158 29.1238 49.2722 29.0427C49.4286 28.9616 49.6004 28.9145 49.7763 28.9044C49.9522 28.8944 50.1282 28.9216 50.2928 28.9844C50.4574 29.0471 50.6069 29.1439 50.7315 29.2685C50.8561 29.3931 50.9529 29.5426 51.0156 29.7072C51.0784 29.8718 51.1056 30.0479 51.0956 30.2237C51.0855 30.3996 51.0384 30.5714 50.9573 30.7278C50.8762 30.8842 50.763 31.0217 50.625 31.1313L30.5313 51.25C30.2943 51.4817 29.9751 51.6098 29.6438 51.6063Z" fill="#FF3F3F"/>
</svg>
