<svg width="80" height="80" viewBox="0 0 80 80" fill="none" xmlns="http://www.w3.org/2000/svg">
<rect width="80" height="80" rx="16" fill="#FFECDB"/>
<g clip-path="url(#clip0_1_51)">
<path d="M45.2031 53.8438H34.7969C33.5391 53.8438 32.5156 54.8672 32.5156 56.125V58.5938C32.5156 59.375 33.1563 60.0078 33.9297 60.0078H46.0547C46.8359 60.0078 47.4688 59.375 47.4688 58.5938V56.125C47.4766 54.8594 46.4531 53.8438 45.2031 53.8438ZM38.8516 42.3359C38.8516 42.9687 39.3672 43.4844 40 43.4844C40.6328 43.4844 41.1484 42.9687 41.1484 42.3359C41.1484 41.7109 40.6406 41.1797 39.9922 41.1797C39.3594 41.1875 38.8516 41.7031 38.8516 42.3359Z" fill="#FF850C"/>
<path d="M40.5469 29.9844C40.5078 29.9297 40.4219 29.9531 40.4219 30.0234V40.3984C41.3125 40.5938 41.9922 41.3828 41.9922 42.3438C41.9922 43.4375 41.1016 44.3203 40.0078 44.3203C38.9922 44.3203 38.1953 43.5781 38.0469 42.6641C37.875 41.5703 38.5937 40.6094 39.5859 40.3984V30.0234C39.5859 29.9531 39.4922 29.9297 39.4609 29.9844L30.6094 43.6719C29.9687 44.6641 30.2109 46.0078 31.1562 46.7266C33.4766 48.4766 34.8984 50.5391 35.4844 53.0078H44.5156C45.1016 50.5391 46.5234 48.4766 48.8437 46.7266C49.7969 46.0078 50.0391 44.6641 49.3906 43.6719L40.5469 29.9844Z" fill="#FF850C"/>
<path d="M57.2031 37.4297C56.0938 30.9453 51.4063 25.6719 45.25 23.7266C48.3594 23.7344 51.4141 23.7422 54.1172 23.7422C54.3359 25.1641 55.5625 26.25 57.0391 26.25C58.6719 26.25 60 24.9219 60 23.2891C60 21.6562 58.6719 20.3281 57.0391 20.3281C55.5391 20.3281 54.2969 21.4531 54.1094 22.9062C51.5469 22.8984 47.5859 22.8906 43.3359 22.8828V21.7031C43.3359 20.7656 42.5781 20 41.6406 20H38.3594C37.4219 20 36.6562 20.7656 36.6562 21.7031V22.8828C31.1953 22.875 27.8906 22.875 25.875 22.8828C25.6797 21.4453 24.4453 20.3359 22.9609 20.3359C21.3281 20.3359 20 21.6641 20 23.2891C20 24.9219 21.3281 26.25 22.9609 26.25C24.4453 26.25 25.6797 25.1484 25.8828 23.7188C28.0234 23.7109 31.1875 23.7109 34.7891 23.7109C28.6172 25.6484 23.9062 30.9297 22.7969 37.4297C21.2344 37.5156 20 38.8047 20 40.3828C20 42.0156 21.3281 43.3438 22.9609 43.3438C24.5938 43.3438 25.9219 42.0156 25.9219 40.3828C25.9219 38.9844 24.9453 37.8125 23.6328 37.5078C24.8125 30.7969 30.0156 25.4531 36.6641 24.0938V24.9766C36.6641 25.9141 37.4297 26.6797 38.3672 26.6797H41.6406C42.5781 26.6797 43.3438 25.9141 43.3438 24.9766V24.0859C49.9922 25.4453 55.2031 30.7891 56.375 37.5C55.0703 37.8047 54.0859 38.9766 54.0859 40.375C54.0859 42.0078 55.4141 43.3359 57.0469 43.3359C58.6797 43.3359 60.0078 42.0078 60.0078 40.375C60 38.8047 58.7656 37.5156 57.2031 37.4297Z" fill="#FF850C"/>
</g>
<defs>
<clipPath id="clip0_1_51">
<rect width="40" height="40" fill="white" transform="translate(20 20)"/>
</clipPath>
</defs>
</svg>
