<svg width="80" height="80" viewBox="0 0 80 80" fill="none" xmlns="http://www.w3.org/2000/svg">
<rect width="80" height="80" rx="16" fill="#E3F9EC"/>
<path d="M30 30C30 29.1159 30.3512 28.2681 30.9763 27.643C31.6014 27.0178 32.4493 26.6666 33.3333 26.6666C33.7754 26.6666 34.1993 26.4911 34.5118 26.1785C34.8244 25.8659 35 25.442 35 25C35 24.558 34.8244 24.134 34.5118 23.8215C34.1993 23.5089 33.7754 23.3333 33.3333 23.3333C31.5652 23.3333 29.8695 24.0357 28.6193 25.2859C27.369 26.5362 26.6667 28.2319 26.6667 30V35C26.6667 35.884 26.3155 36.7319 25.6904 37.357C25.0652 37.9821 24.2174 38.3333 23.3333 38.3333C22.8913 38.3333 22.4674 38.5089 22.1548 38.8215C21.8423 39.134 21.6667 39.558 21.6667 40C21.6667 40.442 21.8423 40.8659 22.1548 41.1785C22.4674 41.4911 22.8913 41.6666 23.3333 41.6666C24.2174 41.6666 25.0652 42.0178 25.6904 42.643C26.3155 43.2681 26.6667 44.1159 26.6667 45V50C26.6667 51.7681 27.369 53.4638 28.6193 54.714C29.8695 55.9643 31.5652 56.6666 33.3333 56.6666C33.7754 56.6666 34.1993 56.4911 34.5118 56.1785C34.8244 55.8659 35 55.442 35 55C35 54.558 34.8244 54.134 34.5118 53.8215C34.1993 53.5089 33.7754 53.3333 33.3333 53.3333C32.4493 53.3333 31.6014 52.9821 30.9763 52.357C30.3512 51.7319 30 50.884 30 50V45C29.9946 44.0509 29.7867 43.1138 29.39 42.2516C28.9934 41.3893 28.4172 40.6216 27.7 40C28.4172 39.3783 28.9934 38.6107 29.39 37.7484C29.7867 36.8861 29.9946 35.9491 30 35V30ZM56.6667 38.3333C55.7826 38.3333 54.9348 37.9821 54.3096 37.357C53.6845 36.7319 53.3333 35.884 53.3333 35V30C53.3333 28.2319 52.631 26.5362 51.3807 25.2859C50.1305 24.0357 48.4348 23.3333 46.6667 23.3333C46.2246 23.3333 45.8007 23.5089 45.4882 23.8215C45.1756 24.134 45 24.558 45 25C45 25.442 45.1756 25.8659 45.4882 26.1785C45.8007 26.4911 46.2246 26.6666 46.6667 26.6666C47.5507 26.6666 48.3986 27.0178 49.0237 27.643C49.6488 28.2681 50 29.1159 50 30V35C50.0054 35.9491 50.2133 36.8861 50.61 37.7484C51.0066 38.6107 51.5828 39.3783 52.3 40C51.5828 40.6216 51.0066 41.3893 50.61 42.2516C50.2133 43.1138 50.0054 44.0509 50 45V50C50 50.884 49.6488 51.7319 49.0237 52.357C48.3986 52.9821 47.5507 53.3333 46.6667 53.3333C46.2246 53.3333 45.8007 53.5089 45.4882 53.8215C45.1756 54.134 45 54.558 45 55C45 55.442 45.1756 55.8659 45.4882 56.1785C45.8007 56.4911 46.2246 56.6666 46.6667 56.6666C48.4348 56.6666 50.1305 55.9643 51.3807 54.714C52.631 53.4638 53.3333 51.7681 53.3333 50V45C53.3333 44.1159 53.6845 43.2681 54.3096 42.643C54.9348 42.0178 55.7826 41.6666 56.6667 41.6666C57.1087 41.6666 57.5326 41.4911 57.8452 41.1785C58.1577 40.8659 58.3333 40.442 58.3333 40C58.3333 39.558 58.1577 39.134 57.8452 38.8215C57.5326 38.5089 57.1087 38.3333 56.6667 38.3333Z" fill="#41D581"/>
</svg>
